<svg width="165" height="78" viewBox="0 0 165 78" fill="none" xmlns="http://www.w3.org/2000/svg">
<path d="M57.25 0.799999C56.7 1.2 55.9 1.75 55.5 2C54.85 2.35 55 2.9 56.4 5.4C57.25 7.05 58 9 58 9.75V11.15L57 9.9C56.45 9.2 53.65 7.25 50.8 5.55L45.55 2.5H35.65H25.8L20.3 5.6C15.25 8.4 14.35 9.1 10.75 13.35C7.25 17.45 6.35 18.9 3.65 25.15L0.5 32.25V39.25V46.25L3.15 53.4C5.7 60.3 5.95 60.7 10.45 66.15C14.4 70.9 15.75 72.2 19.65 74.6L24.2 77.5H34.95H45.75L50.6 74.6C54.85 72.1 56.05 71.05 60.2 66.25L64.95 60.75L63.1 59.15C62.1 58.25 61.15 57.5 61 57.5C60.85 57.5 58.85 59.75 56.5 62.45C53.1 66.4 51.45 67.85 48.3 69.7L44.4 72H35.1H25.8L22 69.7C19.15 67.9 17.35 66.25 14.45 62.8C11 58.65 10.45 57.7 8.35 51.9C6 45.55 6 45.45 6 39.25V32.95L8.5 27.15C11.8 19.6 16.55 14 22.7 10.4L26.75 8H35.7H44.6L48.75 10.5C51.65 12.25 53.45 13.8 54.9 15.65L56.9 18.3L55.95 20.75C54.6 24.35 52 26.7 48.4 27.75C45.75 28.5 44.85 28.5 41.15 28C38.8 27.65 36.75 27.55 36.5 27.8C36.3 28.05 36 29.15 35.8 30.3L35.5 32.35L40.4 33.2L45.25 34L49.75 32.75C53.8 31.55 54.5 31.15 57.1 28.65C58.65 27.1 60.1 25.25 60.25 24.55L60.6 23.25L61.8 24.65L63.05 26.1L64.9 24.7C65.9 23.95 66.85 23.25 66.95 23.2C67.05 23.1 66.25 21.9 65.2 20.5L63.3 18L63.25 12.6C63.2 7.35 63.15 7.15 61.25 3.6C60.15 1.65 59.05 -1.15484e-06 58.75 -1.15484e-06C58.5 -1.15484e-06 57.8 0.399999 57.25 0.799999Z" fill="black"/>
<path d="M110.5 8.49972C106.9 14.8497 106.8 14.9997 105.15 14.9997C101.9 14.9997 96.0502 17.8997 92.5502 21.1997C88.1002 25.4497 86.0002 29.7497 86.0002 34.4997V37.9997H88.5002H91.0002V34.7497C91.0002 30.7497 92.0502 28.4997 95.3502 25.2497C97.4502 23.1997 102.8 20.0997 103.3 20.6497C103.45 20.7497 96.5002 33.1997 87.9502 48.2997C79.4002 63.3997 72.2502 76.0497 72.1502 76.3997C71.9502 76.8997 72.5502 76.9997 74.8002 76.8997L77.7502 76.7497L93.3502 48.9997C101.9 33.7497 109.2 20.8497 109.6 20.3997C110.2 19.5497 110.45 19.5997 113.85 21.1497C120.6 24.1497 124 28.7497 124 34.7497V37.9997H126.5H129V34.2497C129 30.9497 128.8 30.0497 127.3 27.0997C125 22.5497 120.85 18.6997 116.25 16.7997C114.35 15.9997 112.65 15.2497 112.6 15.1997C112.5 15.1497 113.75 12.6497 115.45 9.64972L118.45 4.24972L116.6 3.14972C115.6 2.49972 114.6 1.99972 114.45 1.99972C114.25 1.99972 112.5 4.89972 110.5 8.49972Z" fill="black"/>
<path d="M156.8 9.35018C154.75 13.1502 149.05 23.6002 144.15 32.6002C138.8 42.4502 134.9 49.1002 134.35 49.3002C133.1 49.7002 126.8 46.6002 124.1 44.2502C121 41.5502 119 37.3502 119 33.5002V30.5002H116.75H114.5V34.5502C114.5 38.2502 114.65 38.8502 116.25 41.7002C118.65 46.0502 123.35 50.3502 128 52.5002C130.05 53.4502 131.85 54.2502 131.95 54.3502C132.05 54.4002 129.4 59.4002 126.05 65.4502C122.7 71.5502 120 76.6002 120 76.7502C120 76.9002 121.3 77.0002 122.85 76.9002L125.75 76.7502L131.8 65.6002L137.9 54.4002L141.95 53.0002C146.75 51.3502 147.45 50.9502 151.5 47.2002C155.85 43.1502 157.5 39.7002 157.5 34.7502V31.0002H155H152.5V34.2502C152.5 36.5002 152.2 38.1002 151.55 39.4002C150.25 41.9002 145.7 46.2502 143.35 47.2002C142.3 47.6002 141.55 47.8002 141.65 47.6002C145.65 40.3502 164.55 5.50018 164.75 4.95018C164.95 4.45018 164.5 3.95018 163.25 3.35018C162.25 2.90018 161.25 2.50018 161 2.50018C160.75 2.50018 158.85 5.60018 156.8 9.35018Z" fill="black"/>
</svg>
