<svg width="284" height="25" viewBox="0 0 284 25" fill="none" xmlns="http://www.w3.org/2000/svg">
<rect x="259.84" y="24.8399" width="24" height="24" transform="rotate(-180 259.84 24.8399)" fill="#AAD6E1"/>
<rect x="211.84" y="24.8399" width="24" height="24" transform="rotate(-180 211.84 24.8399)" fill="#D1E9EF"/>
<rect x="189.76" y="24.8399" width="24" height="24" transform="rotate(-180 189.76 24.8399)" fill="#D4E9B9"/>
<rect x="96.16" y="24.8399" width="24" height="24" transform="rotate(-180 96.16 24.8399)" fill="#E0DDC7"/>
<rect x="235.84" y="24.8399" width="24" height="24" transform="rotate(-180 235.84 24.8399)" fill="#B6C6CF"/>
<rect x="120.16" y="24.8399" width="24" height="24" transform="rotate(-180 120.16 24.8399)" fill="#B7A691"/>
<rect x="48.16" y="24.8399" width="24" height="24" transform="rotate(-180 48.16 24.8399)" fill="#FFE9E8"/>
<rect x="168.16" y="24.8399" width="24" height="24" transform="rotate(-180 168.16 24.8399)" fill="#ADD47C"/>
<rect x="283.84" y="24.8399" width="24" height="24" transform="rotate(-180 283.84 24.8399)" fill="#758F9E"/>
<rect x="144.16" y="24.8399" width="24" height="24" transform="rotate(-180 144.16 24.8399)" fill="#957C5D"/>
<rect x="24.16" y="24.8399" width="24" height="24" transform="rotate(-180 24.16 24.8399)" fill="#FFBAB7"/>
<rect x="72.16" y="24.8399" width="24" height="24" transform="rotate(-180 72.16 24.8399)" fill="#FDFAE5"/>
</svg>
